<svg width="20" height="20" viewBox="0 0 20 20" fill="none" xmlns="http://www.w3.org/2000/svg">
<path d="M9.99967 10.4166C10.2298 10.4166 10.4163 10.2301 10.4163 9.99998C10.4163 9.76986 10.2298 9.58331 9.99967 9.58331C9.76956 9.58331 9.58301 9.76986 9.58301 9.99998C9.58301 10.2301 9.76956 10.4166 9.99967 10.4166Z" fill="#0D0D0D"/>
<path d="M9.99967 15.4166C10.2298 15.4166 10.4163 15.2301 10.4163 15C10.4163 14.7699 10.2298 14.5833 9.99967 14.5833C9.76956 14.5833 9.58301 14.7699 9.58301 15C9.58301 15.2301 9.76956 15.4166 9.99967 15.4166Z" fill="#0D0D0D"/>
<path d="M9.99967 5.41665C10.2298 5.41665 10.4163 5.2301 10.4163 4.99998C10.4163 4.76986 10.2298 4.58331 9.99967 4.58331C9.76956 4.58331 9.58301 4.76986 9.58301 4.99998C9.58301 5.2301 9.76956 5.41665 9.99967 5.41665Z" fill="#0D0D0D"/>
<path fill-rule="evenodd" clip-rule="evenodd" d="M8.83301 4.99998C8.83301 4.35565 9.35534 3.83331 9.99967 3.83331C10.644 3.83331 11.1663 4.35565 11.1663 4.99998C11.1663 5.64431 10.644 6.16665 9.99967 6.16665C9.35534 6.16665 8.83301 5.64431 8.83301 4.99998ZM9.99967 5.33331C10.1838 5.33331 10.333 5.18407 10.333 4.99998C10.333 4.81588 10.1838 4.66665 9.99967 4.66665C9.81558 4.66665 9.66634 4.81588 9.66634 4.99998C9.66634 5.18407 9.81558 5.33331 9.99967 5.33331ZM8.83301 9.99998C8.83301 9.35565 9.35534 8.83331 9.99967 8.83331C10.644 8.83331 11.1663 9.35565 11.1663 9.99998C11.1663 10.6443 10.644 11.1666 9.99967 11.1666C9.35534 11.1666 8.83301 10.6443 8.83301 9.99998ZM9.99967 10.3333C10.1838 10.3333 10.333 10.1841 10.333 9.99998C10.333 9.81588 10.1838 9.66665 9.99967 9.66665C9.81558 9.66665 9.66634 9.81588 9.66634 9.99998C9.66634 10.1841 9.81558 10.3333 9.99967 10.3333ZM8.83301 15C8.83301 14.3556 9.35534 13.8333 9.99967 13.8333C10.644 13.8333 11.1663 14.3556 11.1663 15C11.1663 15.6443 10.644 16.1666 9.99967 16.1666C9.35534 16.1666 8.83301 15.6443 8.83301 15ZM9.99967 15.3333C10.1838 15.3333 10.333 15.1841 10.333 15C10.333 14.8159 10.1838 14.6666 9.99967 14.6666C9.81558 14.6666 9.66634 14.8159 9.66634 15C9.66634 15.1841 9.81558 15.3333 9.99967 15.3333Z" fill="#0D0D0D"/>
</svg>
